<svg width="70" height="70" viewBox="0 0 70 70" fill="none" xmlns="http://www.w3.org/2000/svg">
<path d="M68.5128 54.0966L52.5039 38.0877C49.3459 34.9297 44.6293 34.3145 40.8288 36.1874L26.2554 21.614V13.1243L8.75635 0L0.00683545 8.74951L13.1311 26.2485H21.6209L36.1943 40.8219C34.335 44.6225 34.9365 49.3391 38.0946 52.4971L54.1034 68.506C56.0994 70.5019 59.3258 70.5019 61.3081 68.506L68.5128 61.3013C70.4951 59.3053 70.4951 56.0789 68.5128 54.0966ZM45.3539 30.76C49.2228 30.76 52.8594 32.2638 55.5936 34.9981L58.2458 37.6502C60.4058 36.7069 62.4565 35.3945 64.2337 33.6173C69.3057 28.5453 71.0283 21.409 69.4151 14.9289C69.1143 13.6985 67.5695 13.2747 66.6672 14.1769L56.4959 24.3483L47.2132 22.8034L45.6684 13.5207L55.8397 3.34942C56.742 2.44713 56.3045 0.902294 55.0604 0.587858C48.5803 -1.01166 41.444 0.710898 36.3857 5.76921C32.4894 9.66548 30.6575 14.8058 30.7532 19.9325L41.9772 31.1565C43.0845 30.8967 44.2329 30.76 45.3539 30.76ZM31.1496 41.9703L23.3981 34.2188L2.56333 55.0672C-0.854445 58.485 -0.854445 64.0218 2.56333 67.4396C5.98111 70.8574 11.5179 70.8574 14.9357 67.4396L31.8332 50.5421C30.7942 47.8216 30.4797 44.8549 31.1496 41.9703ZM8.75635 64.5277C6.95176 64.5277 5.47528 63.0512 5.47528 61.2466C5.47528 59.4283 6.93809 57.9655 8.75635 57.9655C10.5746 57.9655 12.0374 59.4283 12.0374 61.2466C12.0374 63.0512 10.5746 64.5277 8.75635 64.5277Z" fill="#FBFBFB"/>
</svg>
