<svg width="73" height="73" viewBox="0 0 73 73" fill="none" xmlns="http://www.w3.org/2000/svg">
<path d="M31.9375 68.4375H36.5V73H0V68.4375H4.5625V38.7812C4.5625 36.9753 4.89518 35.2762 5.56055 33.6841C6.22591 32.092 7.12891 30.6781 8.26953 29.4424C9.41016 28.2067 10.7646 27.2087 12.333 26.4482C13.9014 25.6878 15.5885 25.2482 17.3945 25.1294L39.0664 2.78027C39.8981 1.9248 40.8724 1.24756 41.9893 0.748535C43.1061 0.249512 44.2705 0 45.4824 0C46.3379 0 47.1934 0.118815 48.0488 0.356445C48.9043 0.594076 49.7122 0.938639 50.4727 1.39014C51.2331 1.84163 51.9103 2.38818 52.5044 3.02979C53.0985 3.67139 53.5856 4.39616 53.9658 5.2041L67.6533 35.7871C68.0573 36.6663 68.2593 37.6525 68.2593 38.7456C68.2593 39.6961 68.0929 40.5872 67.7603 41.4189C67.4276 42.2507 66.9523 42.9754 66.3345 43.5933C65.7166 44.2111 64.9919 44.7101 64.1602 45.0903C63.3285 45.4705 62.4373 45.6488 61.4868 45.625C60.1323 45.625 58.8966 45.2567 57.7798 44.52C56.6629 43.7834 55.8193 42.7972 55.249 41.5615L46.3022 21.5293L31.7593 36.5356C31.8068 36.9159 31.8424 37.2842 31.8662 37.6406C31.89 37.9971 31.9137 38.3773 31.9375 38.7812V68.4375ZM49.6885 18.0361L56.7461 33.7197L60.9165 31.9375L53.0747 14.3647C52.6232 15.0539 52.0885 15.6955 51.4707 16.2896C50.8529 16.8836 50.2588 17.4658 49.6885 18.0361ZM63.7324 38.7456C63.7324 38.2703 63.6255 37.8188 63.4116 37.3911C63.1978 36.9634 62.9958 36.5356 62.8057 36.1079L58.5996 37.8901C58.766 38.2466 58.9204 38.603 59.063 38.9595C59.2056 39.3159 59.3838 39.6605 59.5977 39.9932C59.8115 40.3258 60.061 40.5754 60.3462 40.7417C60.6313 40.908 61.0234 41.015 61.5225 41.0625C62.1641 41.0625 62.6868 40.8368 63.0908 40.3853C63.4948 39.9338 63.7087 39.3872 63.7324 38.7456ZM22.9551 25.9136C24.4284 26.4601 25.771 27.2324 26.9829 28.2305C28.1948 29.2285 29.2048 30.4048 30.0127 31.7593L48.9043 12.2974C49.332 11.8459 49.6528 11.3468 49.8667 10.8003C50.0806 10.2537 50.1875 9.67155 50.1875 9.05371C50.1875 8.43587 50.0687 7.85368 49.8311 7.30713C49.5934 6.76058 49.2726 6.28532 48.8687 5.88135C48.4647 5.47738 47.9894 5.15658 47.4429 4.91895C46.8963 4.68132 46.3141 4.5625 45.6963 4.5625C44.3656 4.5625 43.2487 5.02588 42.3457 5.95264L22.9551 25.9136ZM9.125 68.4375H27.375V38.7812C27.375 37.5218 27.1374 36.3455 26.6621 35.2524C26.1868 34.1593 25.5334 33.1851 24.7017 32.3296C23.87 31.4741 22.9076 30.8206 21.8145 30.3691C20.7214 29.9176 19.5332 29.68 18.25 29.6562C16.9906 29.6562 15.8143 29.8939 14.7212 30.3691C13.6281 30.8444 12.6538 31.4979 11.7983 32.3296C10.9429 33.1613 10.2894 34.1237 9.83789 35.2168C9.38639 36.3099 9.14876 37.498 9.125 38.7812V68.4375ZM18.25 36.5C18.8916 36.5 19.4857 36.6188 20.0322 36.8564C20.5788 37.0941 21.054 37.4149 21.458 37.8188C21.862 38.2228 22.1947 38.71 22.4561 39.2803C22.7174 39.8506 22.8363 40.4447 22.8125 41.0625C22.8125 41.7041 22.6937 42.2982 22.4561 42.8447C22.2184 43.3913 21.8976 43.8665 21.4937 44.2705C21.0897 44.6745 20.6025 45.0072 20.0322 45.2686C19.4619 45.5299 18.8678 45.6488 18.25 45.625C17.6084 45.625 17.0143 45.5062 16.4678 45.2686C15.9212 45.0309 15.446 44.7101 15.042 44.3062C14.638 43.9022 14.3053 43.415 14.0439 42.8447C13.7826 42.2744 13.6637 41.6803 13.6875 41.0625C13.6875 40.4209 13.8063 39.8268 14.0439 39.2803C14.2816 38.7337 14.6024 38.2585 15.0063 37.8545C15.4103 37.4505 15.8975 37.1178 16.4678 36.8564C17.0381 36.5951 17.6322 36.4762 18.25 36.5ZM50.1875 63.875V59.3125H73V63.875H50.1875ZM50.1875 50.1875H73V54.75H50.1875V50.1875ZM41.0625 54.75V50.1875H45.625V54.75H41.0625ZM50.1875 73V68.4375H73V73H50.1875ZM41.0625 73V68.4375H45.625V73H41.0625ZM41.0625 63.875V59.3125H45.625V63.875H41.0625Z" fill="white"/>
</svg>
