<svg width="33" height="31" viewBox="0 0 33 31" fill="none" xmlns="http://www.w3.org/2000/svg">
<path d="M30.1667 24.8958C30.8248 24.8961 31.4575 25.1496 31.9338 25.6037C32.41 26.0579 32.6934 26.6778 32.725 27.3351C32.7566 27.9925 32.5341 28.6368 32.1037 29.1345C31.6732 29.6323 31.0677 29.9453 30.4127 30.0088L30.1667 30.0208H2.83337C2.1753 30.0205 1.54257 29.767 1.0663 29.3128C0.590027 28.8587 0.306728 28.2388 0.275103 27.5814C0.243478 26.9241 0.465952 26.2798 0.896424 25.7821C1.3269 25.2843 1.93237 24.9713 2.58737 24.9077L2.83337 24.8958H30.1667ZM30.1667 12.9375C30.8463 12.9375 31.4981 13.2074 31.9787 13.688C32.4592 14.1686 32.7292 14.8203 32.7292 15.5C32.7292 16.1796 32.4592 16.8314 31.9787 17.3119C31.4981 17.7925 30.8463 18.0625 30.1667 18.0625H2.83337C2.15376 18.0625 1.50197 17.7925 1.02141 17.3119C0.540851 16.8314 0.270874 16.1796 0.270874 15.5C0.270874 14.8203 0.540851 14.1686 1.02141 13.688C1.50197 13.2074 2.15376 12.9375 2.83337 12.9375H30.1667ZM30.1667 0.979126C30.8463 0.979126 31.4981 1.2491 31.9787 1.72966C32.4592 2.21023 32.7292 2.86201 32.7292 3.54163C32.7292 4.22124 32.4592 4.87303 31.9787 5.35359C31.4981 5.83415 30.8463 6.10413 30.1667 6.10413H2.83337C2.15376 6.10413 1.50197 5.83415 1.02141 5.35359C0.540851 4.87303 0.270874 4.22124 0.270874 3.54163C0.270874 2.86201 0.540851 2.21023 1.02141 1.72966C1.50197 1.2491 2.15376 0.979126 2.83337 0.979126H30.1667Z" fill="black"/>
</svg>
