<svg width="15" height="12" viewBox="0 0 15 12" fill="none" xmlns="http://www.w3.org/2000/svg">
<path fill-rule="evenodd" clip-rule="evenodd" d="M7.416 0.233643C5.50375 0.233643 3.80489 1.09611 2.59524 2.16373C1.9887 2.6996 1.48783 3.30065 1.13515 3.90033C0.787972 4.48834 0.554688 5.12576 0.554688 5.72269C0.554688 6.31963 0.787972 6.95704 1.13515 7.54506C1.48783 8.14405 1.98802 8.74579 2.59524 9.28166C3.80489 10.3493 5.50444 11.2117 7.416 11.2117C9.32825 11.2117 11.0271 10.3493 12.2368 9.28166C12.844 8.74579 13.3442 8.14405 13.6968 7.54506C14.044 6.95704 14.2773 6.31963 14.2773 5.72269C14.2773 5.12576 14.044 4.48834 13.6968 3.90033C13.3442 3.30134 12.844 2.6996 12.2368 2.16373C11.0271 1.09611 9.32756 0.233643 7.416 0.233643ZM8.78826 5.72269C9.03527 5.72269 9.2665 5.65751 9.46685 5.54361C9.50341 5.96435 9.40968 6.38615 9.19836 6.7518C8.98704 7.11745 8.66836 7.40925 8.28556 7.58762C7.90275 7.76599 7.47435 7.82229 7.05845 7.7489C6.64256 7.6755 6.2593 7.47596 5.96068 7.17733C5.66205 6.8787 5.46251 6.49545 5.38911 6.07956C5.31572 5.66366 5.37202 5.23526 5.55039 4.85245C5.72876 4.46965 6.02056 4.15097 6.38621 3.93965C6.75186 3.72833 7.17366 3.6346 7.5944 3.67116C7.47543 3.87999 7.41339 4.11641 7.4145 4.35674C7.4156 4.59708 7.47981 4.83291 7.60069 5.04064C7.72158 5.24837 7.8949 5.4207 8.10331 5.5404C8.31173 5.6601 8.54792 5.72296 8.78826 5.72269Z" fill="#232928"/>
</svg>
