<svg width="50" height="50" viewBox="0 0 50 50" fill="none" xmlns="http://www.w3.org/2000/svg">
<g clip-path="url(#clip0_49_122)">
<path d="M10.6895 23.8322L23.832 10.6915L19.5234 6.38294L13.5 12.4064C13.4282 12.4783 13.3429 12.5354 13.2489 12.5744C13.155 12.6134 13.0543 12.6334 12.9526 12.6334C12.851 12.6334 12.7503 12.6134 12.6564 12.5744C12.5624 12.5354 12.4771 12.4783 12.4053 12.4064L11.3106 11.3116C11.0078 11.0089 11.0078 10.5187 11.3106 10.2169L17.334 4.19348L14.0488 0.907349C12.8389 -0.302612 10.8779 -0.302612 9.66797 0.907349L0.907232 9.66809C-0.301752 10.8781 -0.302729 12.839 0.907232 14.049L10.6895 23.8322ZM48.626 12.4259C50.458 10.5939 50.457 7.62415 48.626 5.79211L44.207 1.37317C42.375 -0.458862 39.4043 -0.458862 37.5713 1.37317L33.0772 5.86633L44.1318 16.921L48.626 12.4259ZM30.8672 8.07727L1.86329 37.0773L0.0312558 47.5695C-0.215815 48.9845 1.01661 50.2169 2.43262 49.9679L12.9258 48.1281L41.9219 19.131L30.8672 8.07727ZM49.0928 35.9513L45.8076 32.6661L39.7842 38.6896C39.4815 38.9923 38.9912 38.9923 38.6895 38.6896L37.5947 37.5948C37.293 37.2921 37.293 36.8019 37.5947 36.5001L43.6182 30.4767L39.3076 26.1661L26.165 39.3068L35.9512 49.0919C37.1611 50.3019 39.1221 50.3019 40.332 49.0919L49.0928 40.3322C50.3027 39.1222 50.3027 37.1613 49.0928 35.9513Z" fill="#FBFBFB"/>
</g>
<defs>
<clipPath id="clip0_49_122">
<rect width="50" height="50" fill="white"/>
</clipPath>
</defs>
</svg>
