<svg width="35" height="34" viewBox="0 0 35 34" fill="none" xmlns="http://www.w3.org/2000/svg">
<path d="M32.4931 1.87026C31.2457 0.622854 29.7448 0 27.9885 0H6.7383C4.98205 0 3.48108 0.622854 2.23367 1.87026C0.986257 3.11767 0.363403 4.61865 0.363403 6.37489V27.6251C0.363403 29.3813 0.986257 30.8823 2.23367 32.1297C3.48108 33.3771 4.98205 34 6.7383 34H11.6973C12.0206 34 12.264 33.9881 12.4274 33.966C12.6174 33.9279 12.789 33.8265 12.9141 33.6784C13.0758 33.5082 13.1574 33.2614 13.1574 32.9381L13.1455 31.432C13.1387 30.4722 13.1353 29.7132 13.1353 29.1516L12.6248 29.2401C12.3014 29.2997 11.893 29.3252 11.3978 29.3184C10.8816 29.3089 10.3671 29.2571 9.85937 29.1635C9.31889 29.0637 8.8101 28.8362 8.37542 28.4998C7.92018 28.1554 7.58064 27.6806 7.40199 27.1384L7.18076 26.6279C6.99429 26.2251 6.76003 25.8463 6.48303 25.4996C6.1665 25.086 5.84486 24.8069 5.51982 24.6589L5.36666 24.5483C5.25986 24.4718 5.16272 24.3826 5.07735 24.2828C4.99582 24.1901 4.9287 24.0857 4.87824 23.9731C4.834 23.8693 4.87144 23.7842 4.98886 23.7178C5.10799 23.6497 5.32071 23.6174 5.63214 23.6174L6.0746 23.6855C6.36901 23.7433 6.73489 23.9203 7.16885 24.2147C7.60801 24.5141 7.97486 24.9077 8.24268 25.3668C8.58303 25.971 8.99146 26.4322 9.47137 26.7504C9.95127 27.0669 10.4346 27.2269 10.9213 27.2269C11.408 27.2269 11.8283 27.1894 12.184 27.1163C12.528 27.0452 12.8622 26.9332 13.1796 26.7827C13.3123 25.7957 13.6731 25.0333 14.2636 24.5023C13.4984 24.4273 12.7401 24.2942 11.9951 24.1041C11.2681 23.9044 10.5689 23.6145 9.91383 23.2413C9.22843 22.8682 8.62303 22.3639 8.13206 21.7573C7.66067 21.1668 7.27266 20.3925 6.96974 19.4344C6.66852 18.4746 6.51706 17.3667 6.51706 16.1125C6.51706 14.3273 7.09908 12.8076 8.2648 11.5517C7.72023 10.2107 7.77128 8.70464 8.41966 7.03859C8.84851 6.90415 9.48328 7.00455 10.324 7.3364C11.1646 7.66825 11.7807 7.95245 12.1721 8.1873C12.5635 8.42555 12.8766 8.62466 13.1132 8.78633C14.4967 8.4013 15.9265 8.20776 17.3626 8.21112C18.8244 8.21112 20.2403 8.40342 21.6136 8.78633L22.4543 8.25537C23.1009 7.86711 23.783 7.54117 24.4913 7.28195C25.2742 6.98583 25.8698 6.90585 26.285 7.03859C26.9487 8.70634 27.0066 10.2107 26.4603 11.5534C27.626 12.8076 28.2097 14.3273 28.2097 16.1142C28.2097 17.3684 28.0583 18.4797 27.7554 19.4446C27.4541 20.4112 27.0627 21.1855 26.5828 21.7693C26.0832 22.3681 25.4753 22.8675 24.7909 23.2413C24.0761 23.6395 23.3818 23.9271 22.7096 24.1041C21.9647 24.2948 21.2063 24.4285 20.4411 24.504C21.2069 25.1677 21.5915 26.2143 21.5915 27.6455V32.9381C21.5915 33.1882 21.6272 33.3908 21.7021 33.5456C21.7365 33.6202 21.7856 33.6872 21.8464 33.7424C21.9072 33.7977 21.9785 33.8401 22.0561 33.8673C22.2195 33.9251 22.3624 33.9626 22.4883 33.9762C22.6143 33.9932 22.7947 33.9983 23.0295 33.9983H27.9885C29.7448 33.9983 31.2457 33.3754 32.4931 32.128C33.7388 30.8823 34.3634 29.3796 34.3634 27.6234V6.37489C34.3634 4.61865 33.7405 3.11767 32.4931 1.87026Z" fill="black"/>
</svg>
