<svg width="35" height="35" viewBox="0 0 35 35" fill="none" xmlns="http://www.w3.org/2000/svg">
<path d="M31.8284 0.636483H2.535C1.87036 0.629718 1.23017 0.886897 0.754921 1.35159C0.27967 1.81628 0.00817152 2.45052 0 3.11515V32.5268C0.0096493 33.1905 0.281797 33.8233 0.756887 34.2867C1.23198 34.7502 1.87132 35.0066 2.535 34.9999H31.8284C32.4931 35.0051 33.1328 34.7471 33.6078 34.2821C34.0828 33.8171 34.3545 33.183 34.3634 32.5184V3.1067C34.3515 2.44402 34.0786 1.8128 33.6039 1.35024C33.1292 0.887686 32.4911 0.631181 31.8284 0.636483Z" fill="#0076B2"/>
<path d="M5.087 13.5171H10.188V29.9298H5.087V13.5171ZM7.6389 5.34875C8.22396 5.34876 8.79587 5.52228 9.28229 5.84738C9.76871 6.17248 10.1478 6.63454 10.3715 7.17512C10.5953 7.7157 10.6537 8.3105 10.5394 8.88427C10.425 9.45805 10.1431 9.98502 9.72917 10.3985C9.31528 10.812 8.78804 11.0935 8.21415 11.2073C7.64027 11.3211 7.04552 11.2621 6.50516 11.0378C5.9648 10.8135 5.50309 10.434 5.17846 9.94731C4.85382 9.46058 4.68084 8.8885 4.6814 8.30344C4.68214 7.51955 4.99407 6.76802 5.54863 6.21399C6.10318 5.65996 6.85501 5.34875 7.6389 5.34875ZM13.3877 13.5171H18.2775V15.7704H18.3451C19.0267 14.4804 20.6885 13.1199 23.17 13.1199C28.3358 13.1087 29.2935 16.5084 29.2935 20.9165V29.9298H24.1925V21.9446C24.1925 20.0433 24.1587 17.5956 21.542 17.5956C18.9253 17.5956 18.4803 19.6687 18.4803 21.8206V29.9298H13.3877V13.5171Z" fill="white"/>
</svg>
