<svg width="20" height="20" viewBox="0 0 20 20" fill="none" xmlns="http://www.w3.org/2000/svg">
<path d="M6.61111 11.5556H3.97778C3.70938 10.5359 3.70938 9.46412 3.97778 8.44445H6.61111C6.5426 8.96023 6.5055 9.47971 6.5 10C6.5055 10.5203 6.5426 11.0398 6.61111 11.5556ZM4.62222 6.88889H6.88889C7.1481 5.92913 7.51331 5.0012 7.97778 4.12222C6.56039 4.60634 5.36763 5.58976 4.62222 6.88889ZM15.3778 6.88889C14.6265 5.59034 13.4306 4.60759 12.0111 4.12222C12.482 4.99698 12.8439 5.92612 13.0889 6.88889M10 16.1889C10.6603 15.2507 11.1631 14.2111 11.4889 13.1111H8.51111C8.83685 14.2111 9.33975 15.2507 10 16.1889ZM10 3.8C9.33918 4.7419 8.83629 5.78521 8.51111 6.88889H11.4889C11.1637 5.78521 10.6608 4.7419 10 3.8ZM4.62222 13.1111C5.37231 14.4063 6.56338 15.3883 7.97778 15.8778C7.51331 14.9988 7.1481 14.0709 6.88889 13.1111M20 2.22222V17.7778C20 18.3671 19.7659 18.9324 19.3491 19.3491C18.9324 19.7659 18.3671 20 17.7778 20H2.22222C1.63285 20 1.06762 19.7659 0.650874 19.3491C0.234126 18.9324 0 18.3671 0 17.7778V2.22222C0 1.63285 0.234126 1.06762 0.650874 0.650874C1.06762 0.234126 1.63285 0 2.22222 0H17.7778C18.3671 0 18.9324 0.234126 19.3491 0.650874C19.7659 1.06762 20 1.63285 20 2.22222ZM17.7778 10C17.7778 8.4617 17.3216 6.95795 16.467 5.6789C15.6124 4.39985 14.3976 3.40295 12.9764 2.81427C11.5552 2.22559 9.99137 2.07156 8.48263 2.37167C6.97389 2.67178 5.58802 3.41254 4.50028 4.50028C3.41254 5.58802 2.67178 6.97389 2.37167 8.48263C2.07156 9.99137 2.22559 11.5552 2.81427 12.9764C3.40295 14.3976 4.39985 15.6124 5.6789 16.467C6.95795 17.3216 8.4617 17.7778 10 17.7778C12.0628 17.7778 14.0411 16.9583 15.4997 15.4997C16.9583 14.0411 17.7778 12.0628 17.7778 10ZM13.5 10C13.4945 10.5203 13.4574 11.0398 13.3889 11.5556H16.0222C16.2906 10.5359 16.2906 9.46412 16.0222 8.44445H13.3889C13.4574 8.96023 13.4945 9.47971 13.5 10ZM12.0111 15.8778C13.4291 15.3897 14.6242 14.4077 15.3778 13.1111H13.0889C12.8439 14.0739 12.482 15.003 12.0111 15.8778ZM8.17778 8.44445C8.01193 9.47485 8.01193 10.5251 8.17778 11.5556H11.8222C11.8983 11.0404 11.9391 10.5207 11.9444 10C11.9395 9.47929 11.8986 8.95954 11.8222 8.44445H8.17778Z" fill="white"/>
</svg>
