<svg width="35" height="35" viewBox="0 0 35 35" fill="none" xmlns="http://www.w3.org/2000/svg">
<path d="M34.7096 8.44926C34.6953 7.71208 34.6362 6.97646 34.5326 6.24645C34.4092 5.59713 34.1994 4.96724 33.9089 4.37356C33.273 3.11803 32.2534 2.09786 30.9984 1.46111C30.4085 1.17195 29.7827 0.962773 29.1376 0.839107C28.402 0.733404 27.6607 0.673151 26.9177 0.65869C26.6033 0.646662 26.1961 0.641507 26.0071 0.641507L9.08655 0.636353C8.89755 0.636353 8.49034 0.641507 8.17592 0.653535C7.43877 0.667739 6.70318 0.726842 5.97322 0.830515C5.32393 0.953954 4.69407 1.16372 4.10042 1.45424C2.84503 2.09034 1.82493 3.10988 1.18812 4.36496C0.899054 4.95487 0.689887 5.58067 0.566147 6.22583C0.45997 6.96139 0.399147 7.70279 0.384021 8.44582C0.373712 8.76026 0.36684 9.16749 0.36684 9.35649L0.363403 26.2779C0.363403 26.4669 0.368558 26.8741 0.380585 27.1885C0.394788 27.9257 0.453888 28.6614 0.557556 29.3913C0.681009 30.0407 0.890768 30.6705 1.18125 31.2642C1.81732 32.5197 2.83681 33.5398 4.09183 34.1767C4.68172 34.4657 5.30748 34.6749 5.95261 34.7987C6.68815 34.9044 7.42952 34.9647 8.17248 34.9791C8.48691 34.9911 8.89411 34.9963 9.08311 34.9963L26.0036 34.9997C26.1926 34.9997 26.5998 34.9946 26.9143 34.9825C27.6514 34.9683 28.387 34.9092 29.117 34.8056C29.7662 34.682 30.3961 34.4723 30.9898 34.1818C32.2458 33.546 33.2665 32.5265 33.9038 31.2711C34.1929 30.6812 34.4021 30.0554 34.5257 29.4102C34.632 28.6747 34.6928 27.9333 34.7079 27.1903C34.7182 26.8758 34.7251 26.4686 34.7251 26.2796L34.7268 9.35993C34.7268 9.17092 34.7216 8.7637 34.7096 8.44926ZM17.9179 29.7728H17.9128C15.8676 29.7724 13.8551 29.2596 12.059 28.2813L5.5643 29.9841L7.30309 23.6386C5.95682 21.3023 5.4189 18.5871 5.77271 15.914C6.12653 13.2409 7.35232 10.7592 9.26003 8.85361C11.1677 6.94807 13.6508 5.72517 16.3242 5.37452C18.9976 5.02386 21.7121 5.56504 24.0466 6.91416C26.3812 8.26327 28.2055 10.3449 29.2366 12.8364C30.2678 15.3279 30.4482 18.09 29.7499 20.6944C29.0516 23.2989 27.5136 25.6002 25.3744 27.2416C23.2352 28.8829 20.6142 29.7727 17.9179 29.7728Z" fill="#268E6C"/>
<path d="M17.9231 7.33924C16.1037 7.33871 14.3174 7.82564 12.75 8.74939C11.1825 9.67314 9.8911 11 9.0101 12.5919C8.1291 14.1839 7.69066 15.9828 7.74038 17.8016C7.79009 19.6204 8.32613 21.3927 9.29277 22.9341L9.53504 23.319L8.50585 27.0751L12.3597 26.0648L12.7308 26.2847C14.2997 27.2139 16.0895 27.7041 17.9128 27.704H17.918C20.6186 27.7045 23.2088 26.632 25.1188 24.7226C27.0287 22.8132 28.102 20.2232 28.1024 17.5225C28.1029 14.8217 27.0305 12.2314 25.1212 10.3213C23.2119 8.41129 20.622 7.33798 17.9214 7.33752L17.9231 7.33924ZM23.9092 21.8929C23.684 22.2648 23.3843 22.5861 23.0288 22.8366C22.6734 23.0871 22.27 23.2613 21.844 23.3482C21.2008 23.4585 20.5407 23.4174 19.9162 23.2279C19.324 23.0434 18.7418 22.8277 18.1723 22.5819C16.0585 21.521 14.2567 19.9288 12.9439 17.9615C12.2277 17.0508 11.793 15.9508 11.6931 14.7965C11.6848 14.32 11.7759 13.8471 11.9605 13.4078C12.1451 12.9685 12.4191 12.5724 12.7652 12.2449C12.8675 12.1282 12.9928 12.0339 13.1332 11.968C13.2737 11.902 13.4262 11.8658 13.5813 11.8617C13.7841 11.8617 13.9885 11.8617 14.1672 11.872C14.3562 11.8806 14.6071 11.7998 14.8545 12.3978C15.1122 13.0095 15.7239 14.5164 15.7995 14.6693C15.848 14.7495 15.8758 14.8405 15.8803 14.9341C15.8848 15.0277 15.8659 15.121 15.8253 15.2054C15.7482 15.3892 15.6452 15.5611 15.5194 15.7157C15.3648 15.8944 15.1981 16.1144 15.0607 16.2518C14.906 16.4048 14.748 16.5697 14.9249 16.8756C15.3846 17.6626 15.9584 18.3772 16.6276 18.9959C17.3538 19.6415 18.187 20.1555 19.0898 20.5148C19.3956 20.6695 19.5743 20.642 19.753 20.4375C19.9317 20.233 20.5176 19.544 20.722 19.2382C20.9265 18.9323 21.1292 18.9839 21.4093 19.0852C21.6894 19.1866 23.1962 19.9272 23.502 20.0818C23.8079 20.2365 24.0123 20.3103 24.0879 20.4375C24.1717 20.9297 24.1096 21.4356 23.9092 21.8929Z" fill="#268E6C"/>
</svg>
