<svg width="71" height="70" viewBox="0 0 71 70" fill="none" xmlns="http://www.w3.org/2000/svg">
<path d="M11.0826 62.411L5.62061 0.73938H65.641L60.1735 62.4017L35.5944 69.2612L11.0826 62.411Z" fill="#1572B6"/>
<path d="M11.0826 62.411L5.62061 0.73938H65.641L60.1735 62.4017L35.5944 69.2612L11.0826 62.411Z" fill="#1572B6"/>
<path d="M35.6313 64.0183L55.4927 58.4752L60.1654 5.78162H35.6313V64.0183Z" fill="#33A9DC"/>
<path d="M35.6313 28.1253H45.5743L46.261 20.3799H35.6313V12.816H54.473L54.2926 14.8455L52.4455 35.6891H35.6313V28.1253Z" fill="white"/>
<path d="M35.6759 47.769L35.6428 47.7788L27.2748 45.5044L26.7397 39.4718H19.198L20.2503 51.3483L35.6417 55.6484L35.6759 55.6385V47.769Z" fill="#EBEBEB"/>
<path d="M44.9353 35.3691L44.0302 45.4984L35.6498 47.7755V55.6451L51.0536 51.3477L51.1666 50.0697L52.4737 35.3691H44.9353Z" fill="white"/>
<path d="M35.6568 12.816V20.3799H17.5073L17.3568 18.6802L17.0145 14.8455L16.8347 12.816H35.6568ZM35.6313 28.1264V35.6902H27.3687L27.2182 33.9905L26.8754 30.1558L26.6961 28.1264H35.6313Z" fill="#EBEBEB"/>
</svg>
