<svg width="100" height="100" viewBox="0 0 71 70" fill="none" xmlns="http://www.w3.org/2000/svg">
<g clip-path="url(#clip0_49_170)">
<path d="M68.3656 31.9303L38.4228 1.98856C36.6996 0.264228 33.9028 0.264228 32.1769 1.98856L25.9597 8.20682L33.8469 16.094C35.6804 15.4752 37.7818 15.8903 39.2426 17.3511C40.7111 18.8212 41.1229 20.9405 40.4889 22.78L48.0903 30.382C49.9293 29.748 52.0518 30.1576 53.5197 31.6288C55.5733 33.6807 55.5733 37.0072 53.5197 39.0602C53.0317 39.5484 52.4523 39.9357 51.8146 40.2C51.1768 40.4642 50.4933 40.6002 49.8029 40.6002C49.1126 40.6002 48.4291 40.4642 47.7913 40.2C47.1536 39.9357 46.5742 39.5484 46.0862 39.0602C45.353 38.3265 44.8532 37.3924 44.6497 36.3753C44.4462 35.3582 44.5481 34.3037 44.9426 33.3444L37.854 26.2559L37.8529 44.9123C38.3672 45.1655 38.8368 45.501 39.2432 45.9054C41.2956 47.9573 41.2956 51.2826 39.2432 53.3389C37.1901 55.3908 33.8626 55.3908 31.8118 53.3389C29.7593 51.2832 29.7593 47.9578 31.8118 45.9054C32.3035 45.4128 32.8884 45.0232 33.5323 44.7591V25.9299C32.8879 25.6665 32.3028 25.2765 31.8118 24.7831C30.2569 23.2293 29.8826 20.9476 30.6801 19.0374L22.9043 11.2616L2.3731 31.7918C1.54479 32.6203 1.07947 33.744 1.07947 34.9156C1.07947 36.0872 1.54479 37.2108 2.3731 38.0394L32.3165 67.9811C34.0408 69.7054 36.8365 69.7054 38.5635 67.9811L68.3662 38.1784C69.1943 37.3496 69.6595 36.2259 69.6594 35.0543C69.6593 33.8826 69.1939 32.759 68.3656 31.9303Z" fill="#F34F29"/>
</g>
<defs>
<clipPath id="clip0_49_170">
<rect width="69.5385" height="69.5385" fill="white" transform="translate(0.599854 0.215332)"/>
</clipPath>
</defs>
</svg>
